<mxfile host="Electron" agent="Mozilla/5.0 (Macintosh; Intel Mac OS X 10_15_7) AppleWebKit/537.36 (KHTML, like Gecko) draw.io/24.7.5 Chrome/126.0.6478.183 Electron/31.3.0 Safari/537.36" version="24.7.5">
  <diagram name="Page-1" id="VLJDBwGc8tw-kBL-8N2p">
    <mxGraphModel dx="2387" dy="4579" grid="1" gridSize="10" guides="1" tooltips="1" connect="1" arrows="1" fold="1" page="1" pageScale="1" pageWidth="827" pageHeight="1169" math="0" shadow="0">
      <root>
        <mxCell id="0" />
        <mxCell id="1" parent="0" />
        <mxCell id="1TPRH_xe5gjV9h8QFaa1-3" style="edgeStyle=orthogonalEdgeStyle;rounded=0;orthogonalLoop=1;jettySize=auto;html=1;entryX=0.5;entryY=0;entryDx=0;entryDy=0;" parent="1" source="x328PwAZrwwHZPL1ipOy-71" target="1TPRH_xe5gjV9h8QFaa1-2" edge="1">
          <mxGeometry relative="1" as="geometry" />
        </mxCell>
        <mxCell id="x328PwAZrwwHZPL1ipOy-71" value="&lt;font style=&quot;font-size: 25px;&quot;&gt;Start&lt;/font&gt;" style="strokeWidth=1;html=1;shape=mxgraph.flowchart.start_2;whiteSpace=wrap;fontSize=25;strokeColor=#B3B3B3;" parent="1" vertex="1">
          <mxGeometry x="-40" y="-2450" width="80" height="80" as="geometry" />
        </mxCell>
        <mxCell id="1TPRH_xe5gjV9h8QFaa1-6" style="edgeStyle=orthogonalEdgeStyle;rounded=0;orthogonalLoop=1;jettySize=auto;html=1;entryX=0.5;entryY=0;entryDx=0;entryDy=0;" parent="1" source="Cy4L_7yIVipCF6p3bhCm-1" target="Cy4L_7yIVipCF6p3bhCm-6" edge="1">
          <mxGeometry relative="1" as="geometry" />
        </mxCell>
        <mxCell id="Cy4L_7yIVipCF6p3bhCm-1" value="&lt;div style=&quot;font-size: 25px;&quot;&gt;&lt;span style=&quot;background-color: initial;&quot;&gt;ESG-related news from Thomson Reuters (Eikon API)&lt;/span&gt;&lt;br&gt;&lt;/div&gt;" style="rounded=0;whiteSpace=wrap;html=1;align=center;strokeColor=#B3B3B3;fontSize=25;verticalAlign=middle;" parent="1" vertex="1">
          <mxGeometry x="-457.5" y="-2110" width="370" height="90" as="geometry" />
        </mxCell>
        <mxCell id="Cy4L_7yIVipCF6p3bhCm-25" style="edgeStyle=orthogonalEdgeStyle;rounded=0;orthogonalLoop=1;jettySize=auto;html=1;" parent="1" source="Cy4L_7yIVipCF6p3bhCm-6" target="Cy4L_7yIVipCF6p3bhCm-8" edge="1">
          <mxGeometry relative="1" as="geometry" />
        </mxCell>
        <mxCell id="Cy4L_7yIVipCF6p3bhCm-6" value="&lt;p style=&quot;margin: 0cm; font-family: Aptos, sans-serif; font-size: 25px;&quot; class=&quot;MsoNormal&quot;&gt;&lt;font style=&quot;font-size: 25px;&quot;&gt;&lt;b style=&quot;font-size: 25px;&quot;&gt;&lt;span style=&quot;font-family: Helvetica; background-image: initial; background-position: initial; background-size: initial; background-repeat: initial; background-attachment: initial; background-origin: initial; background-clip: initial; font-size: 25px;&quot;&gt;Text Preprocessing:&lt;/span&gt;&lt;/b&gt;&lt;span style=&quot;font-family: &amp;quot;Times New Roman&amp;quot;, serif; font-size: 25px;&quot;&gt;&lt;/span&gt;&lt;/font&gt;&lt;/p&gt;&lt;ul style=&quot;margin-bottom: 0cm; font-size: 25px;&quot; type=&quot;disc&quot;&gt;&lt;li style=&quot;margin: 0cm; font-family: Aptos, sans-serif; background-image: initial; background-position: initial; background-size: initial; background-repeat: initial; background-attachment: initial; background-origin: initial; background-clip: initial; font-size: 25px;&quot; class=&quot;MsoNormal&quot;&gt;&lt;span style=&quot;font-family: Helvetica; font-size: 25px;&quot;&gt;&lt;font style=&quot;font-size: 25px;&quot;&gt;Extract blocks of text from ESG-related news&lt;/font&gt;&lt;/span&gt;&lt;/li&gt;&lt;li style=&quot;margin: 0cm; font-family: Aptos, sans-serif; background-image: initial; background-position: initial; background-size: initial; background-repeat: initial; background-attachment: initial; background-origin: initial; background-clip: initial; font-size: 25px;&quot; class=&quot;MsoNormal&quot;&gt;&lt;span style=&quot;font-family: Helvetica; font-size: 25px;&quot;&gt;&lt;font style=&quot;font-size: 25px;&quot;&gt;Break down text into relevant sentences&lt;/font&gt;&lt;/span&gt;&lt;/li&gt;&lt;li style=&quot;margin: 0cm; font-family: Aptos, sans-serif; background-image: initial; background-position: initial; background-size: initial; background-repeat: initial; background-attachment: initial; background-origin: initial; background-clip: initial; font-size: 25px;&quot; class=&quot;MsoNormal&quot;&gt;&lt;span style=&quot;font-family: Arial, sans-serif; font-size: 25px;&quot;&gt;&lt;font style=&quot;font-size: 25px;&quot;&gt;Clean text and remove characters other than letters, numbers and special characters that are not on a standard keyboard&lt;/font&gt;&lt;/span&gt;&lt;/li&gt;&lt;/ul&gt;" style="rounded=0;html=1;align=left;whiteSpace=wrap;resizable=1;autosize=0;resizeWidth=0;container=0;imageAspect=1;strokeColor=#B3B3B3;fontSize=25;verticalAlign=top;" parent="1" vertex="1">
          <mxGeometry x="-570" y="-1950" width="595" height="220" as="geometry" />
        </mxCell>
        <mxCell id="1TPRH_xe5gjV9h8QFaa1-7" style="edgeStyle=orthogonalEdgeStyle;rounded=0;orthogonalLoop=1;jettySize=auto;html=1;" parent="1" source="Cy4L_7yIVipCF6p3bhCm-8" target="Cy4L_7yIVipCF6p3bhCm-11" edge="1">
          <mxGeometry relative="1" as="geometry" />
        </mxCell>
        <mxCell id="Cy4L_7yIVipCF6p3bhCm-8" value="&lt;font style=&quot;font-size: 25px;&quot;&gt;&lt;font style=&quot;font-size: 25px;&quot;&gt;&lt;b style=&quot;font-size: 25px;&quot;&gt;Text Vectorisation:&lt;br style=&quot;font-size: 25px;&quot;&gt;&lt;/b&gt;&lt;/font&gt;&lt;span style=&quot;background-color: initial; font-size: 25px;&quot;&gt;&lt;b style=&quot;font-size: 25px;&quot;&gt;&lt;br style=&quot;font-size: 25px;&quot;&gt;&lt;/b&gt;The extracted sentences are transformed into vectors using a pre-trained model&lt;/span&gt;&lt;/font&gt;" style="rounded=0;whiteSpace=wrap;html=1;align=left;strokeColor=#B3B3B3;fontSize=25;verticalAlign=top;" parent="1" vertex="1">
          <mxGeometry x="-567.5" y="-1680" width="590" height="150" as="geometry" />
        </mxCell>
        <mxCell id="3QLeYfS6uihCZPVxcAaQ-1" style="edgeStyle=orthogonalEdgeStyle;rounded=0;orthogonalLoop=1;jettySize=auto;html=1;" edge="1" parent="1" source="Cy4L_7yIVipCF6p3bhCm-11" target="1TPRH_xe5gjV9h8QFaa1-13">
          <mxGeometry relative="1" as="geometry" />
        </mxCell>
        <mxCell id="Cy4L_7yIVipCF6p3bhCm-11" value="&lt;font style=&quot;font-size: 25px;&quot;&gt;&lt;b style=&quot;font-size: 25px;&quot;&gt;Sentiment Analysis:&lt;/b&gt;&lt;/font&gt;&lt;div style=&quot;font-size: 25px;&quot;&gt;&lt;ul style=&quot;font-size: 25px;&quot;&gt;&lt;li style=&quot;font-size: 25px;&quot;&gt;&lt;font style=&quot;font-size: 25px;&quot;&gt;Classification of sentiment scores is performed using a pre-trained model specific for financial topics which provides Sentiment Value and Sentiment Score&lt;/font&gt;&lt;/li&gt;&lt;li style=&quot;font-size: 25px;&quot;&gt;&lt;font style=&quot;font-size: 25px;&quot;&gt;Composite Score = Sentiment Value x Sentiment Score&amp;nbsp;&lt;/font&gt;&lt;/li&gt;&lt;/ul&gt;&lt;/div&gt;" style="rounded=0;whiteSpace=wrap;html=1;align=left;strokeColor=#B3B3B3;fontSize=25;verticalAlign=top;" parent="1" vertex="1">
          <mxGeometry x="-637" y="-1480" width="729" height="220" as="geometry" />
        </mxCell>
        <mxCell id="1TPRH_xe5gjV9h8QFaa1-10" style="edgeStyle=orthogonalEdgeStyle;rounded=0;orthogonalLoop=1;jettySize=auto;html=1;entryX=0.5;entryY=0;entryDx=0;entryDy=0;" parent="1" source="1TPRH_xe5gjV9h8QFaa1-1" target="1TPRH_xe5gjV9h8QFaa1-8" edge="1">
          <mxGeometry relative="1" as="geometry" />
        </mxCell>
        <mxCell id="1TPRH_xe5gjV9h8QFaa1-1" value="&lt;div style=&quot;text-align: center; font-size: 25px;&quot;&gt;&lt;span style=&quot;background-color: initial;&quot;&gt;Stock Market Data from Thomson Reuters (Eikon API)&lt;/span&gt;&lt;br&gt;&lt;/div&gt;" style="rounded=0;whiteSpace=wrap;html=1;align=left;strokeColor=#B3B3B3;fontSize=25;verticalAlign=middle;" parent="1" vertex="1">
          <mxGeometry x="172.5" y="-2110" width="370" height="90" as="geometry" />
        </mxCell>
        <mxCell id="1TPRH_xe5gjV9h8QFaa1-4" style="edgeStyle=orthogonalEdgeStyle;rounded=0;orthogonalLoop=1;jettySize=auto;html=1;entryX=0.5;entryY=0;entryDx=0;entryDy=0;" parent="1" source="1TPRH_xe5gjV9h8QFaa1-2" target="Cy4L_7yIVipCF6p3bhCm-1" edge="1">
          <mxGeometry relative="1" as="geometry">
            <Array as="points">
              <mxPoint y="-2190" />
              <mxPoint x="-272" y="-2190" />
            </Array>
          </mxGeometry>
        </mxCell>
        <mxCell id="1TPRH_xe5gjV9h8QFaa1-5" style="edgeStyle=orthogonalEdgeStyle;rounded=0;orthogonalLoop=1;jettySize=auto;html=1;entryX=0.5;entryY=0;entryDx=0;entryDy=0;" parent="1" source="1TPRH_xe5gjV9h8QFaa1-2" target="1TPRH_xe5gjV9h8QFaa1-1" edge="1">
          <mxGeometry relative="1" as="geometry">
            <Array as="points">
              <mxPoint y="-2190" />
              <mxPoint x="358" y="-2190" />
            </Array>
          </mxGeometry>
        </mxCell>
        <mxCell id="1TPRH_xe5gjV9h8QFaa1-2" value="&lt;font style=&quot;font-size: 25px;&quot;&gt;&lt;b style=&quot;font-size: 25px;&quot;&gt;Data Collection&lt;/b&gt;&lt;/font&gt;" style="rounded=0;whiteSpace=wrap;html=1;align=center;strokeColor=#B3B3B3;fontSize=25;verticalAlign=middle;" parent="1" vertex="1">
          <mxGeometry x="-95" y="-2320" width="190" height="55" as="geometry" />
        </mxCell>
        <mxCell id="3QLeYfS6uihCZPVxcAaQ-2" style="edgeStyle=orthogonalEdgeStyle;rounded=0;orthogonalLoop=1;jettySize=auto;html=1;" edge="1" parent="1" source="1TPRH_xe5gjV9h8QFaa1-8">
          <mxGeometry relative="1" as="geometry">
            <mxPoint x="60" y="-1100" as="targetPoint" />
            <Array as="points">
              <mxPoint x="358" y="-1180" />
              <mxPoint x="61" y="-1180" />
              <mxPoint x="61" y="-1100" />
            </Array>
          </mxGeometry>
        </mxCell>
        <mxCell id="1TPRH_xe5gjV9h8QFaa1-8" value="&lt;p class=&quot;MsoNormal&quot; style=&quot;margin: 0cm; font-size: 25px;&quot;&gt;&lt;/p&gt;&lt;ul&gt;&lt;li&gt;Daily Stock prices time series&lt;/li&gt;&lt;li&gt;Daily Stock returns time series&lt;/li&gt;&lt;/ul&gt;&lt;p&gt;&lt;/p&gt;" style="rounded=0;html=1;align=center;whiteSpace=wrap;resizable=1;autosize=0;resizeWidth=0;container=0;imageAspect=1;strokeColor=#B3B3B3;fontSize=25;verticalAlign=top;" parent="1" vertex="1">
          <mxGeometry x="102.5" y="-1950" width="510" height="120" as="geometry" />
        </mxCell>
        <mxCell id="1TPRH_xe5gjV9h8QFaa1-13" value="&lt;span&gt;Relationship between variation and returns of stock prices (in %), and Composite Score of ESG-related news&lt;/span&gt;" style="rounded=0;whiteSpace=wrap;html=1;align=center;strokeColor=#B3B3B3;fontSize=25;verticalAlign=top;fontStyle=0" parent="1" vertex="1">
          <mxGeometry x="-260" y="-1100" width="643" height="90" as="geometry" />
        </mxCell>
        <mxCell id="x328PwAZrwwHZPL1ipOy-94" value="Pointers" parent="0" />
        <mxCell id="x328PwAZrwwHZPL1ipOy-95" value="Shapes" style="" parent="0" />
      </root>
    </mxGraphModel>
  </diagram>
</mxfile>
